<mxfile host="app.diagrams.net" modified="2023-10-07T18:03:05.868Z" agent="Mozilla/5.0 (Windows NT 10.0; Win64; x64) AppleWebKit/537.36 (KHTML, like Gecko) Chrome/117.0.0.0 Safari/537.36" version="22.0.4" etag="2Az7c42nSValRFzdawyd" type="github">
  <diagram name="Page-1" id="ctLB3yJUCSkk44JP-rwN">
    <mxGraphModel>
      <root>
        <mxCell id="0" />
        <mxCell id="1" parent="0" />
      </root>
    </mxGraphModel>
  </diagram>
</mxfile>
